<?xml version="1.0" standalone="no"?>
<!DOCTYPE svg PUBLIC "-//W3C//DTD SVG 20010904//EN"
 "http://www.w3.org/TR/2001/REC-SVG-20010904/DTD/svg10.dtd">
<svg version="1.0" xmlns="http://www.w3.org/2000/svg"
 width="296.000000pt" height="296.000000pt" viewBox="0 0 296.000000 296.000000"
 preserveAspectRatio="xMidYMid meet">
<metadata>
Created by potrace 1.14, written by Peter Selinger 2001-2017
</metadata>
<g transform="translate(0.000000,296.000000) scale(0.100000,-0.100000)"
fill="#000000" stroke="none">
<path d="M1660 2925 c-80 -13 -349 -53 -598 -89 -295 -43 -472 -74 -510 -88
-129 -48 -235 -145 -296 -271 -40 -81 -39 -79 -150 -737 -42 -245 -80 -467
-87 -495 -20 -91 -22 -197 -5 -266 32 -128 120 -260 219 -328 67 -45 1087
-578 1163 -607 140 -53 295 -41 438 34 61 32 121 85 415 372 658 642 640 621
683 771 17 60 20 92 15 174 -5 110 -6 113 -102 310 -279 572 -467 949 -498
998 -50 78 -116 139 -197 181 -136 72 -238 80 -490 41z m154 -286 c94 -37 149
-97 383 -423 337 -469 353 -493 374 -551 31 -89 22 -234 -21 -315 -13 -25 -72
-108 -225 -315 -45 -60 -150 -203 -234 -318 -104 -141 -166 -216 -194 -235
-86 -58 -189 -88 -272 -79 -29 3 -267 76 -529 162 -430 141 -481 160 -534 199
-68 50 -90 79 -135 173 l-32 68 4 525 c4 595 4 598 83 704 53 72 120 116 233
155 88 30 747 241 835 267 66 20 192 12 264 -17z"/>
<path d="M1420 2033 c-47 -16 -112 -59 -298 -195 -114 -83 -222 -163 -240
-177 -67 -53 -110 -154 -99 -234 11 -79 196 -622 226 -664 15 -21 52 -51 82
-68 l54 -30 335 0 c240 0 347 4 376 13 57 17 127 81 152 139 41 96 184 560
189 614 7 70 -16 143 -60 193 -47 53 -504 383 -556 401 -43 14 -130 19 -161 8z
m305 -535 c255 -353 231 -315 210 -338 -23 -25 -99 -70 -119 -70 -8 0 -18 9
-21 20 -8 25 -25 26 -25 2 0 -35 -52 -121 -101 -167 -76 -71 -145 -99 -249
-99 -227 -2 -391 162 -393 394 -2 120 25 184 112 271 69 69 141 106 226 116
37 5 40 7 40 36 0 25 9 36 54 68 42 29 57 35 70 27 9 -6 97 -123 196 -260z"/>
<path d="M1360 1471 c-63 -20 -122 -66 -149 -117 -21 -42 -24 -128 -7 -181 19
-57 73 -114 128 -138 46 -19 157 -20 201 -2 89 38 142 156 117 265 -27 120
-174 208 -290 173z"/>
</g>
</svg>
