<svg xmlns="http://www.w3.org/2000/svg" width="32.365" height="32.365" viewBox="0 0 32.365 32.365">
  <path id="Path_371" data-name="Path 371" d="M0,16.182A16.182,16.182,0,1,1,16.182,32.365,16.183,16.183,0,0,1,0,16.182Zm15.171-14c-1.355.413-2.7,1.659-3.817,3.752a15.448,15.448,0,0,0-.8,1.764,25.672,25.672,0,0,0,4.616.581ZM8.595,7.159a17.965,17.965,0,0,1,.973-2.181,13.642,13.642,0,0,1,1.208-1.887,14.188,14.188,0,0,0-4.6,3.079,16.762,16.762,0,0,0,2.423.991ZM7.1,15.171A27.009,27.009,0,0,1,7.98,9.086,18.41,18.41,0,0,1,4.814,7.737a14.1,14.1,0,0,0-2.755,7.434H7.1ZM9.93,9.626a24.932,24.932,0,0,0-.809,5.544h6.05V10.3A27.323,27.323,0,0,1,9.93,9.626Zm7.264.67v4.875h6.048a25.047,25.047,0,0,0-.807-5.544,27.484,27.484,0,0,1-5.241.672Zm-8.071,6.9a24.79,24.79,0,0,0,.807,5.544,27.558,27.558,0,0,1,5.241-.67V17.194Zm8.071,0v4.873a27.323,27.323,0,0,1,5.241.672,24.9,24.9,0,0,0,.809-5.544ZM10.555,24.67a15.806,15.806,0,0,0,.8,1.764c1.117,2.094,2.464,3.338,3.817,3.752V24.091a25.672,25.672,0,0,0-4.616.581Zm.223,4.6a13.469,13.469,0,0,1-1.21-1.887A17.981,17.981,0,0,1,8.595,25.2a16.923,16.923,0,0,0-2.423.991,14.188,14.188,0,0,0,4.6,3.079Zm-2.8-6A27.013,27.013,0,0,1,7.1,17.194H2.059a14.079,14.079,0,0,0,2.755,7.434A18.373,18.373,0,0,1,7.98,23.278Zm13.609,6a14.174,14.174,0,0,0,4.6-3.077,16.9,16.9,0,0,0-2.421-.991,17.815,17.815,0,0,1-.973,2.181A13.642,13.642,0,0,1,21.589,29.274Zm-4.4-5.184v6.1c1.355-.413,2.7-1.659,3.817-3.752a15.447,15.447,0,0,0,.8-1.764,25.5,25.5,0,0,0-4.616-.579Zm7.191-.811a18.373,18.373,0,0,1,3.166,1.349,14.079,14.079,0,0,0,2.755-7.434H25.269A27.013,27.013,0,0,1,24.385,23.278Zm5.921-8.107A14.079,14.079,0,0,0,27.55,7.737a18.373,18.373,0,0,1-3.166,1.349,27.106,27.106,0,0,1,.884,6.085ZM22.8,4.978a18.287,18.287,0,0,1,.975,2.181,16.78,16.78,0,0,0,2.419-.991,14.168,14.168,0,0,0-4.6-3.075A13.586,13.586,0,0,1,22.8,4.978ZM21.81,7.695a15.9,15.9,0,0,0-.8-1.764c-1.117-2.094-2.462-3.338-3.817-3.752V8.273a25.672,25.672,0,0,0,4.616-.581Z" fill="#ec3d3c"/>
</svg>
