<svg xmlns="http://www.w3.org/2000/svg" xmlns:xlink="http://www.w3.org/1999/xlink" width="77" height="77" viewBox="0 0 77 77">
  <defs>
    <clipPath id="clip-path">
      <circle id="Ellipse_6" data-name="Ellipse 6" cx="38.5" cy="38.5" r="38.5" transform="translate(922 722)" fill="#39383e" stroke="#707070" stroke-width="1"/>
    </clipPath>
  </defs>
  <g id="Group_196" data-name="Group 196" transform="translate(-712 -2476)">
    <rect id="Rectangle_28" data-name="Rectangle 28" width="36" height="20" transform="translate(763 2539) rotate(-90)" fill="#ec3d3c"/>
    <rect id="Rectangle_30" data-name="Rectangle 30" width="17" height="11" transform="translate(748 2539) rotate(-90)" fill="#ec3d3c"/>
    <g id="Mask_Group_4" data-name="Mask Group 4" transform="translate(-210 1754)" clip-path="url(#clip-path)">
      <path id="search" d="M32.2,28.37A17.825,17.825,0,1,0,28.367,32.2h0a3.208,3.208,0,0,0,.269.315L39.191,43.077a2.743,2.743,0,0,0,3.88-3.878L32.513,28.641a2.761,2.761,0,0,0-.315-.274Zm.708-10.541A15.082,15.082,0,1,1,17.823,2.746,15.082,15.082,0,0,1,32.905,17.829Z" transform="translate(938.565 738.555)" fill="#39383e"/>
    </g>
  </g>
</svg>
