<svg xmlns="http://www.w3.org/2000/svg" xmlns:xlink="http://www.w3.org/1999/xlink" width="84" height="77" viewBox="0 0 84 77">
  <defs>
    <clipPath id="clip-path">
      <circle id="Ellipse_4" data-name="Ellipse 4" cx="38.5" cy="38.5" r="38.5" transform="translate(701 722)" fill="#fff" stroke="#707070" stroke-width="1"/>
    </clipPath>
  </defs>
  <g id="Group_195" data-name="Group 195" transform="translate(-122 -2476)">
    <rect id="Rectangle_26" data-name="Rectangle 26" width="53" height="33" transform="translate(153 2496)" fill="#ec3d3c"/>
    <g id="Mask_Group_2" data-name="Mask Group 2" transform="translate(-579 1754)" clip-path="url(#clip-path)">
      <path id="diagram-3-fill" d="M20.45,14.738a5.113,5.113,0,0,1,5.113-5.113h3.408a5.113,5.113,0,0,1,5.113,5.113v3.408a5.113,5.113,0,0,1-5.113,5.113v3.408H47.718a1.7,1.7,0,0,1,1.7,1.7V31.78a1.7,1.7,0,1,1-3.408,0v-1.7H28.971v1.7a1.7,1.7,0,1,1-3.408,0v-1.7H8.521v1.7a1.7,1.7,0,1,1-3.408,0V28.371a1.7,1.7,0,0,1,1.7-1.7H25.563V23.259a5.113,5.113,0,0,1-5.113-5.113ZM0,42a5.113,5.113,0,0,1,5.113-5.113H8.521A5.113,5.113,0,0,1,13.634,42v3.408a5.113,5.113,0,0,1-5.113,5.113H5.113A5.113,5.113,0,0,1,0,45.413Zm20.45,0a5.113,5.113,0,0,1,5.113-5.113h3.408A5.113,5.113,0,0,1,34.084,42v3.408a5.113,5.113,0,0,1-5.113,5.113H25.563a5.113,5.113,0,0,1-5.113-5.113ZM40.9,42a5.113,5.113,0,0,1,5.113-5.113h3.408A5.113,5.113,0,0,1,54.535,42v3.408a5.113,5.113,0,0,1-5.113,5.113H46.013A5.113,5.113,0,0,1,40.9,45.413Z" transform="translate(712.233 730.425)" fill-rule="evenodd"/>
    </g>
  </g>
</svg>
